<?xml version="1.0" encoding="utf-8"?>
<!-- Generator: Adobe Illustrator 15.1.0, SVG Export Plug-In . SVG Version: 6.00 Build 0)  -->
<!DOCTYPE svg PUBLIC "-//W3C//DTD SVG 1.1//EN" "http://www.w3.org/Graphics/SVG/1.1/DTD/svg11.dtd">
<svg version="1.1" id="Layer_1" xmlns="http://www.w3.org/2000/svg" xmlns:xlink="http://www.w3.org/1999/xlink" x="0px" y="0px"
	 width="75px" height="75px" viewBox="0 0 75 75" enable-background="new 0 0 75 75" xml:space="preserve">
<path fill="#999999" d="M66.676,8.324c-3.074-3.074-8.027-3.074-11.102,0L37.5,26.398L19.426,8.324
	c-3.074-3.074-8.028-3.074-11.102,0c-3.074,3.074-3.074,8.028,0,11.102L26.398,37.5L8.324,55.574c-3.074,3.074-3.074,8.027,0,11.102
	C9.898,68.25,11.848,69,13.875,69c2.023,0,4.051-0.75,5.551-2.324L37.5,48.602l18.074,18.074C57.148,68.25,59.098,69,61.125,69
	c2.023,0,4.051-0.75,5.551-2.324c3.074-3.074,3.074-8.023,0-11.102L48.602,37.5l18.074-18.074
	C69.75,16.352,69.75,11.398,66.676,8.324z"/>
</svg>
